<?xml version="1.0" encoding="utf-8"?>
<!-- Generator: Adobe Illustrator 22.0.1, SVG Export Plug-In . SVG Version: 6.00 Build 0)  -->
<svg version="1.1" id="Layer_1" xmlns="http://www.w3.org/2000/svg" xmlns:xlink="http://www.w3.org/1999/xlink" x="0px" y="0px"
	 viewBox="0 0 256 256" style="enable-background:new 0 0 256 256;" xml:space="preserve">
<style type="text/css">
	.st0{fill:#3A312A;}
	.st1{fill:#D6DF58;}
	.st2{fill:#87796F;}
	.st3{fill:#B9C239;}
	.st4{fill:#EF6D7A;}
	.st5{fill:#FCE8CB;}
	.st6{fill:#D5DE58;}
	.st7{fill:#D34E5C;}
	.st8{fill:#695B51;}
	.st9{fill:#8AC6DD;}
	.st10{fill:#D7E057;}
	.st11{fill:#B8C136;}
	.st12{fill:#F16C7A;}
	.st13{fill:#8AC2D9;}
	.st14{fill:#F7E3C7;}
	.st15{fill:#8AC3DA;}
	.st16{fill:#6DA3BC;}
	.st17{fill:#6A5C52;}
	.st18{fill:#D5DC57;}
	.st19{fill:#F6E2C6;}
	.st20{fill:#DBC7AA;}
	.st21{fill:#CE4E61;}
	.st22{fill:#FAE6CA;}
	.st23{fill:#8AC5DC;}
	.st24{fill:#DDC9AC;}
	.st25{fill:#DECAAD;}
	.st26{fill:#6CA6BE;}
	.st27{fill:#F8E4C8;}
	.st28{fill:#89C4DB;}
	.st29{fill:#ED6E7A;}
	.st30{fill:#D24E5C;}
	.st31{fill:#6DA4BD;}
	.st32{fill:#EB6E7A;}
	.st33{fill:#68A7BB;}
	.st34{fill:#B9BC37;}
	.st35{fill:#CC4E61;}
	.st36{fill:#6CA8BF;}
	.st37{fill-rule:evenodd;clip-rule:evenodd;fill:#D5DE58;}
	.st38{fill:#EA6D7A;}
	.st39{fill:#F4E0C4;}
	.st40{fill-rule:evenodd;clip-rule:evenodd;fill:#D6DF58;}
	.st41{fill-rule:evenodd;clip-rule:evenodd;fill:#F16C7A;}
	.st42{fill:#F3DEC3;}
	.st43{fill-rule:evenodd;clip-rule:evenodd;fill:#FAE6CA;}
	.st44{fill:#F59689;}
	.st45{fill-rule:evenodd;clip-rule:evenodd;fill:#F8E4C8;}
	.st46{fill-rule:evenodd;clip-rule:evenodd;fill:#FCE8CB;}
	.st47{fill:#F5978A;}
	.st48{fill:#D4DB56;}
	.st49{fill-rule:evenodd;clip-rule:evenodd;fill:#D4DA55;}
	.st50{fill-rule:evenodd;clip-rule:evenodd;fill:#EB6E7A;}
	.st51{fill:#68A6B9;}
	.st52{fill-rule:evenodd;clip-rule:evenodd;fill:#D5DC57;}
	.st53{fill:#8AC1D8;}
	.st54{fill:#F5E1C5;}
	.st55{fill:#D4D752;}
	.st56{fill:#D3D751;}
	.st57{fill:#D4D853;}
	.st58{fill:#E96C7A;}
	.st59{fill:#D4DA55;}
	.st60{fill:#8BC0D7;}
	.st61{fill:#87796F;stroke:#3A312A;stroke-width:3;stroke-linecap:round;stroke-linejoin:round;stroke-miterlimit:10;}
</style>
<g>
	<g>
		<g>
			<path class="st18" d="M226.228,26.227c-0.974,11.564-13.024,13.389-13.024,13.389c10.347,0.487,12.925,14.059,12.925,14.059
				c0.221-9.677,13.321-14.202,13.321-14.202C229.636,38.886,226.228,26.227,226.228,26.227z"/>
		</g>
	</g>
	<g>
		<g>
			<path class="st0" d="M239.54,37.976c-8.605-0.514-11.832-12.024-11.864-12.141c-0.191-0.703-0.865-1.165-1.583-1.102
				c-0.725,0.066-1.298,0.642-1.359,1.367c-0.86,10.215-11.313,11.964-11.754,12.033c-0.763,0.115-1.313,0.79-1.273,1.56
				c0.04,0.77,0.657,1.384,1.428,1.421c9.028,0.425,11.498,12.718,11.523,12.842c0.137,0.711,0.759,1.217,1.472,1.217
				c0.042,0,0.084-0.001,0.126-0.005c0.764-0.064,1.357-0.693,1.375-1.459c0.195-8.508,12.192-12.777,12.313-12.819
				c0.675-0.235,1.092-0.914,0.994-1.622C240.837,38.56,240.253,38.019,239.54,37.976z M225.974,48.322
				c-1.356-3.131-3.709-6.908-7.587-8.877c2.931-1.405,6.409-3.913,8.202-8.272c1.551,3.071,4.2,6.88,8.335,8.722
				C231.916,41.535,228,44.301,225.974,48.322z"/>
		</g>
	</g>
	<g>
		<g>
			<path class="st18" d="M204.529,43.207c-0.689,8.179-9.212,9.471-9.212,9.471c7.318,0.344,9.142,9.944,9.142,9.944
				c0.156-6.844,9.422-10.045,9.422-10.045C206.94,52.161,204.529,43.207,204.529,43.207z"/>
		</g>
	</g>
	<g>
		<g>
			<path class="st0" d="M213.971,51.079c-5.766-0.345-7.972-8.185-7.994-8.264c-0.191-0.702-0.857-1.165-1.582-1.102
				c-0.726,0.065-1.299,0.643-1.36,1.368c-0.579,6.87-7.647,8.066-7.942,8.113c-0.763,0.115-1.313,0.79-1.273,1.561
				c0.04,0.77,0.657,1.384,1.428,1.421c6.035,0.284,7.723,8.644,7.739,8.726c0.135,0.713,0.759,1.22,1.473,1.22
				c0.041,0,0.083-0.001,0.125-0.005c0.765-0.063,1.358-0.694,1.376-1.461c0.13-5.709,8.332-8.634,8.413-8.662
				c0.677-0.234,1.094-0.913,0.996-1.622C215.27,51.664,214.685,51.122,213.971,51.079z M204.386,57.874
				c-0.924-1.885-2.34-3.947-4.447-5.28c1.855-1.041,3.697-2.629,4.871-4.916c1.057,1.874,2.654,3.955,4.941,5.224
				C207.901,54.002,205.762,55.643,204.386,57.874z"/>
		</g>
	</g>
	<g>
		<g>
			<path class="st18" d="M204.529,16.55c-0.689,8.179-9.212,9.471-9.212,9.471c7.318,0.344,9.142,9.944,9.142,9.944
				c0.156-6.845,9.422-10.045,9.422-10.045C206.94,25.504,204.529,16.55,204.529,16.55z"/>
		</g>
	</g>
	<g>
		<g>
			<path class="st0" d="M213.971,24.422c-5.766-0.345-7.973-8.186-7.994-8.265c-0.191-0.702-0.857-1.166-1.582-1.102
				c-0.726,0.065-1.299,0.643-1.36,1.368c-0.579,6.871-7.647,8.067-7.942,8.114c-0.763,0.115-1.313,0.79-1.273,1.56
				c0.04,0.77,0.657,1.384,1.428,1.421c6.035,0.284,7.723,8.644,7.739,8.726c0.135,0.713,0.759,1.22,1.472,1.22
				c0.042,0,0.083-0.001,0.125-0.005c0.765-0.063,1.358-0.694,1.376-1.461c0.13-5.709,8.331-8.634,8.413-8.662
				c0.676-0.234,1.094-0.913,0.996-1.622C215.27,25.006,214.685,24.465,213.971,24.422z M204.386,31.217
				c-0.924-1.885-2.34-3.947-4.447-5.28c1.855-1.041,3.697-2.63,4.871-4.916c1.057,1.873,2.654,3.954,4.941,5.223
				C207.901,27.345,205.762,28.984,204.386,31.217z"/>
		</g>
	</g>
	<g>
		<g>
			<path class="st32" d="M177.245,36.967c-0.109-11.314-9.347-20.431-20.71-20.436L37.282,16.469
				C25.834,16.463,16.55,25.703,16.55,37.104v158.77c0,11.409,9.249,20.657,20.657,20.657h119.685
				c11.409,0,20.657-9.249,20.657-20.657V68.537L177.245,36.967z"/>
		</g>
	</g>
	<g>
		<g>
			<path class="st0" d="M178.745,36.953c-0.116-12.081-10.079-21.915-22.208-21.922L37.283,14.969c-0.004,0-0.008,0-0.012,0
				c-5.933,0-11.51,2.3-15.707,6.477c-4.201,4.181-6.515,9.742-6.515,15.658v38.427c0,0.829,0.671,1.5,1.5,1.5s1.5-0.671,1.5-1.5
				V37.103c0-5.112,2-9.917,5.631-13.531c3.631-3.614,8.456-5.603,13.59-5.603c0.003,0,0.007,0,0.01,0l119.254,0.062
				c10.492,0.005,19.11,8.507,19.21,18.951l0.305,31.555v127.336c0,10.564-8.594,19.157-19.157,19.157H37.207
				c-10.563,0-19.157-8.594-19.157-19.157V89.531c0-0.829-0.671-1.5-1.5-1.5s-1.5,0.671-1.5,1.5v106.343
				c0,12.218,9.94,22.157,22.157,22.157h119.686c12.218,0,22.157-9.939,22.157-22.157V68.522L178.745,36.953z"/>
		</g>
	</g>
	<g>
		<g>
			<path class="st39" d="M147.5,39.5H59.35c-11.51,0-20.85,9.34-20.85,20.85v158.3c0,11.51,9.34,20.85,20.85,20.85h32.299h13.703
				h73.298c11.51,0,20.85-9.34,20.85-20.85V91.53L147.5,39.5z"/>
		</g>
	</g>
	<g>
		<g>
			<path class="st0" d="M200.561,90.469l-52-52.03C148.28,38.158,147.898,38,147.5,38H59.35C47.026,38,37,48.026,37,60.35v158.3
				C37,230.974,47.026,241,59.35,241h32.299c0.829,0,1.5-0.671,1.5-1.5s-0.671-1.5-1.5-1.5H59.35C48.68,238,40,229.32,40,218.65
				V60.35C40,49.68,48.68,41,59.35,41h87.528L198,92.151V218.65c0,10.67-8.68,19.35-19.35,19.35h-73.298c-0.829,0-1.5,0.671-1.5,1.5
				s0.671,1.5,1.5,1.5h73.298c12.324,0,22.35-10.026,22.35-22.35V91.53C201,91.132,200.842,90.75,200.561,90.469z"/>
		</g>
	</g>
	<g>
		<g>
			<path class="st0" d="M170.55,76.5h-102c-0.829,0-1.5,0.671-1.5,1.5s0.671,1.5,1.5,1.5h102c0.829,0,1.5-0.671,1.5-1.5
				S171.378,76.5,170.55,76.5z"/>
		</g>
	</g>
	<g>
		<g>
			<path class="st0" d="M170.55,108.135h-102c-0.829,0-1.5,0.671-1.5,1.5c0,0.829,0.671,1.5,1.5,1.5h102c0.829,0,1.5-0.671,1.5-1.5
				C172.05,108.806,171.378,108.135,170.55,108.135z"/>
		</g>
	</g>
	<g>
		<g>
			<path class="st0" d="M170.55,139.769h-102c-0.829,0-1.5,0.671-1.5,1.5s0.671,1.5,1.5,1.5h102c0.829,0,1.5-0.671,1.5-1.5
				S171.378,139.769,170.55,139.769z"/>
		</g>
	</g>
	<g>
		<g>
			<path class="st0" d="M170.55,171.404h-102c-0.829,0-1.5,0.671-1.5,1.5s0.671,1.5,1.5,1.5h102c0.829,0,1.5-0.671,1.5-1.5
				S171.378,171.404,170.55,171.404z"/>
		</g>
	</g>
	<g>
		<g>
			<path class="st0" d="M170.5,203h-102c-0.829,0-1.5,0.671-1.5,1.5s0.671,1.5,1.5,1.5h102c0.829,0,1.5-0.671,1.5-1.5
				S171.329,203,170.5,203z"/>
		</g>
	</g>
	<g>
		<g>
			
				<ellipse transform="matrix(0.7071 -0.7071 0.7071 0.7071 -80.7268 194.73)" class="st49" cx="194.696" cy="194.811" rx="44.72" ry="44.72"/>
		</g>
	</g>
	<g>
		<g>
			<path class="st0" d="M194.696,148.591c-25.486,0-46.22,20.734-46.22,46.22c0,25.486,20.734,46.22,46.22,46.22
				c25.486,0,46.22-20.734,46.22-46.22C240.917,169.325,220.182,148.591,194.696,148.591z M194.696,238.031
				c-23.832,0-43.22-19.388-43.22-43.22c0-23.831,19.388-43.22,43.22-43.22c23.831,0,43.22,19.389,43.22,43.22
				C237.917,218.643,218.528,238.031,194.696,238.031z"/>
		</g>
	</g>
	<g>
		<g>
			<path class="st50" d="M214.438,172.456c-6.179-2.129-15.547-0.077-19.555,5.592c-4.008-5.669-13.377-7.721-19.555-5.592
				c-7.861,2.709-12.051,10.999-11.277,19.016c0.86,8.911,7.254,17.79,14.212,24.697l2.87,2.715
				c1.898,1.713,3.789,3.262,5.572,4.609c2.117,1.598,5.269,4.304,8.122,4.365c0.002,0,0.004,0.001,0.006,0.002v0.001
				c0.003,0.001,0.006,0.003,0.01,0.003h0.003c0.012,0,0.025-0.002,0.037-0.002c0.012,0,0.025,0.002,0.037,0.002c0,0,0,0,0,0h0.003
				c0.004,0,0.007-0.002,0.01-0.003v-0.001c0.002-0.001,0.004-0.002,0.006-0.002c2.853-0.06,6.006-2.766,8.122-4.365
				c9.276-7.004,21.443-19.482,22.653-32.02C226.489,183.455,222.3,175.165,214.438,172.456z"/>
		</g>
	</g>
	<g>
		<g>
			<path class="st0" d="M214.927,171.038c-6.038-2.082-15.062-0.622-20.044,4.652c-4.981-5.274-14.006-6.732-20.044-4.652
				c-8.13,2.801-13.18,11.264-12.281,20.578c0.977,10.125,8.505,19.519,14.674,25.642l2.87,2.715
				c0.008,0.008,0.017,0.017,0.026,0.024c1.843,1.662,3.752,3.241,5.673,4.692l0.745,0.571c2.165,1.671,5.116,3.947,8.114,4.091
				c0.061,0.007,0.123,0.011,0.186,0.011h0.079c0.055,0,0.11-0.003,0.165-0.009c2.985-0.121,5.956-2.414,8.134-4.094l0.743-0.569
				c5.073-3.831,21.742-17.538,23.242-33.074C228.107,182.302,223.057,173.839,214.927,171.038z M224.222,191.328
				c-1.098,11.378-12.118,23.457-22.063,30.968c-0.244,0.184-0.5,0.381-0.768,0.588c-1.876,1.448-4.445,3.43-6.451,3.473
				c-0.027,0.001-0.054,0.002-0.081,0.001c-2.037-0.043-4.605-2.025-6.48-3.472c-0.269-0.208-0.526-0.406-0.77-0.59
				c-1.847-1.396-3.684-2.914-5.458-4.514l-2.831-2.678c-5.792-5.75-12.883-14.542-13.775-23.776
				c-0.753-7.803,3.567-15.143,10.273-17.454c5.418-1.868,14.201-0.108,17.842,5.041c0.562,0.796,1.888,0.796,2.449,0
				c3.641-5.148,12.422-6.907,17.842-5.041C220.655,176.185,224.976,183.525,224.222,191.328z"/>
		</g>
	</g>
	<g>
		<g>
			<path class="st39" d="M147.5,39.5v33.8c0,10.14,8.22,18.36,18.36,18.36h33.64v-0.13L147.5,39.5z"/>
		</g>
	</g>
	<g>
		<g>
			<path class="st0" d="M200.561,90.469l-52-52.03c-0.429-0.429-1.074-0.558-1.635-0.325C146.366,38.346,146,38.893,146,39.5v33.8
				c0,10.951,8.909,19.86,19.86,19.86h33.64c0.829,0,1.5-0.671,1.5-1.5v-0.13C201,91.132,200.842,90.75,200.561,90.469z
				 M165.86,90.16c-9.296,0-16.86-7.563-16.86-16.86V43.123l47.01,47.038H165.86z"/>
		</g>
	</g>
	<g>
		<g>
			<path class="st25" d="M180,93.16v57.83c4.62-1.56,9.56-2.4,14.7-2.4c1.11,0,2.21,0.05,3.3,0.13V93.16H180z"/>
		</g>
	</g>
</g>
</svg>
